<svg height="512pt" viewBox="-56 0 512 512" width="512pt" xmlns="http://www.w3.org/2000/svg"><path d="m319.941406 75.039062c0 8.28125-6.722656 15-15 15h-89.941406v116.289063c0 8.28125-6.71875 15-15 15s-15-6.71875-15-15v-116.289063h-89.941406c-8.277344 0-15-6.71875-15-15 0-8.289062 6.722656-15 15-15h89.941406v-15c0-8.289062 6.71875-15 15-15s15 6.710938 15 15v15h89.941406c8.277344 0 15 6.710938 15 15zm0 0" fill="#e3eeff"/><path d="m319.941406 436.960938c0 8.277343-6.722656 15-15 15h-209.882812c-8.277344 0-15-6.722657-15-15 0-8.28125 6.722656-15 15-15h89.941406v-55.710938c0-8.289062 6.71875-15 15-15s15 6.710938 15 15v55.710938h89.941406c8.277344 0 15 6.71875 15 15zm0 0" fill="#e3eeff"/><path d="m319.941406 436.960938c0 8.277343-6.722656 15-15 15h-104.941406v-100.710938c8.28125 0 15 6.710938 15 15v55.710938h89.941406c8.277344 0 15 6.71875 15 15zm0 0" fill="#d7e2f2"/><path d="m200 221.328125v-191.289063c8.28125 0 15 6.710938 15 15v15h89.941406c8.277344 0 15 6.710938 15 15 0 8.28125-6.722656 15-15 15h-89.941406v116.289063c0 8.28125-6.71875 15-15 15zm0 0" fill="#d7e2f2"/><path d="m80.0625 285.785156c0 24.878906 20.238281 45.121094 45.113281 45.121094h35.375v-90.242188h-35.375c-24.875 0-45.113281 20.242188-45.113281 45.121094zm0 0" fill="#ffde00"/><path d="m274.824219 240.664062h-35.375v90.242188h35.375c24.875 0 45.113281-20.242188 45.113281-45.121094s-20.238281-45.121094-45.113281-45.121094zm0 0" fill="#ffbc17"/><path d="m269.449219 225.308594v121.953125c0 18.738281-15.25 33.988281-33.988281 33.988281h-70.921876c-18.738281 0-33.988281-15.25-33.988281-33.988281v-121.953125c0-18.738282 15.25-33.980469 33.988281-33.980469h70.921876c18.738281 0 33.988281 15.242187 33.988281 33.980469zm0 0" fill="#aab5c6"/><g fill="#697e97"><path d="m110.058594 35.980469v78.109375c0 19.851562-16.136719 35.988281-35.980469 35.988281h-38.097656c-19.839844 0-35.980469-16.136719-35.980469-35.988281v-78.109375c0-19.839844 16.140625-35.980469 35.980469-35.980469h38.097656c19.84375 0 35.980469 16.140625 35.980469 35.980469zm0 0"/><path d="m400 35.980469v78.109375c0 19.851562-16.140625 35.988281-35.980469 35.988281h-38.097656c-19.84375 0-35.980469-16.136719-35.980469-35.988281v-78.109375c0-19.839844 16.136719-35.980469 35.980469-35.980469h38.097656c19.839844 0 35.980469 16.140625 35.980469 35.980469zm0 0"/><path d="m110.058594 397.898438v78.121093c0 19.839844-16.136719 35.980469-35.980469 35.980469h-38.097656c-19.839844 0-35.980469-16.140625-35.980469-35.980469v-78.121093c0-19.839844 16.140625-35.976563 35.980469-35.976563h38.097656c19.84375 0 35.980469 16.136719 35.980469 35.976563zm0 0"/><path d="m400 397.898438v78.121093c0 19.839844-16.140625 35.980469-35.980469 35.980469h-38.097656c-19.84375 0-35.980469-16.140625-35.980469-35.980469v-78.121093c0-19.839844 16.136719-35.976563 35.980469-35.976563h38.097656c19.839844 0 35.980469 16.136719 35.980469 35.976563zm0 0"/></g><path d="m110.058594 35.980469v78.109375c0 19.851562-16.136719 35.988281-35.980469 35.988281h-19.046875v-150.078125h19.046875c19.84375 0 35.980469 16.140625 35.980469 35.980469zm0 0" fill="#38506e"/><path d="m110.058594 397.898438v78.121093c0 19.839844-16.136719 35.980469-35.980469 35.980469h-19.046875v-150.078125h19.046875c19.84375 0 35.980469 16.136719 35.980469 35.976563zm0 0" fill="#38506e"/><path d="m400 35.980469v78.109375c0 19.851562-16.140625 35.988281-35.980469 35.988281h-19.050781v-150.078125h19.050781c19.839844 0 35.980469 16.140625 35.980469 35.980469zm0 0" fill="#38506e"/><path d="m400 397.898438v78.121093c0 19.839844-16.140625 35.980469-35.980469 35.980469h-19.050781v-150.078125h19.050781c19.839844 0 35.980469 16.136719 35.980469 35.976563zm0 0" fill="#38506e"/><path d="m269.449219 225.308594v121.953125c0 18.738281-15.25 33.988281-33.988281 33.988281h-35.460938v-189.921875h35.460938c18.738281 0 33.988281 15.242187 33.988281 33.980469zm0 0" fill="#909fb4"/></svg>